# xmcd
#
# Track frame offsets: 
#        150
#        12657
#        27270
#        39270
#        51630
#        63208
#        74179
#        84524
#        99804
#        110554
#        122544
#        132465
#        144059
#        152857
#        163330
#        176883
#        188429
#        201870
#        211233
#        224330
#        235551
#        247399
#        259370
#
# Disc length: 3606 seconds
#
# Revision: 0
# Processed by: cddbd v1.5.2PL0 Copyright (c) Steve Scherf et al.
# Submitted via: ExactAudioCopy v1.1
#
DISCID=580e1417
DTITLE=Various Artist - All-Time Country Favourites 1965-1969 Disc 2
DYEAR=2011
DGENRE=Country
TTITLE0=Johnny Cash and June Carter - Jackson
TTITLE1=Jeannie C. Riley - Harper Valley P.TA
TTITLE2=Bobby Bare - The streets of Baltimore
TTITLE3=Dottie West and Don Gibson - Rings of gold
TTITLE4=Marty Robbins - Ribbon of darkness
TTITLE5=Eddy Arnold - Somebody like me
TTITLE6=George Jones - Walk through this world with me
TTITLE7=Jim Reeves - Blue side of lonesome
TTITLE8=Tammy Wynette - Singing my song
TTITLE9=Del Reeves - Girl on the billboard
TTITLE10=Hank Snow - The wishing well ( down in the well )
TTITLE11=Bill Phillips and Dolly Parton - Put it off until tomorrow
TTITLE12=Jerry Lee Lewis - Invitation to your party
TTITLE13=George Hamilton IV - Break my mind
TTITLE14=Billie Jo Spears - Mr Walker, it's all over
TTITLE15=Conway Twitty - I love you more  today
TTITLE16=Ray Price - The other woman ( in my life )
TTITLE17=Jerry Lee Lewis - One minute past eternity
TTITLE18=Billie Rose with The Nashville Sounds - Jealous heart
TTITLE19=Ned Miller - Do what you do do well
TTITLE20=Roy Druskey and Priscilla Mitchell - Yes, Mr Peters
TTITLE21=Sonny James - A world of our own
TTITLE22=Willie Nelson - The party's over 
EXTD=
EXTT0=
EXTT1=
EXTT2=
EXTT3=
EXTT4=
EXTT5=
EXTT6=
EXTT7=
EXTT8=
EXTT9=
EXTT10=
EXTT11=
EXTT12=
EXTT13=
EXTT14=
EXTT15=
EXTT16=
EXTT17=
EXTT18=
EXTT19=
EXTT20=
EXTT21=
EXTT22=
PLAYORDER=
